# xmcd
#
# Track frame offsets: 
#        150
#        14364
#        30753
#        48118
#        64515
#        81534
#        95898
#        115900
#        136795
#        150383
#
# Disc length: 2150 seconds
#
# Revision: 0
# Processed by: cddbd v1.5.1PL0 Copyright (c) Steve Scherf et al.
# Submitted via: ExactAudioCopy v0.95a5
#
DISCID=7108640a
DTITLE=Johnny Berry and The Outliers - Shoot! Darn! Yeah!
DYEAR=2005
DGENRE=Country
TTITLE0=Every Time I Turn Around
TTITLE1=Understand Your Man
TTITLE2=Northern Lights
TTITLE3=Nobody Loves You When You're Down
TTITLE4=Deeper In My Mind
TTITLE5=Link In Your Chain
TTITLE6=Liars Hall Of Fame
TTITLE7=Workin' In The Hayfield
TTITLE8=Grahamton Mill
TTITLE9=I Drive A Truck
EXTD=
EXTT0=Johnny Berry
EXTT1=Johnny Cash
EXTT2=Ernie Hernandez
EXTT3=Johnny Berry
EXTT4=Johnny Berry - Gary Stillwell
EXTT5=Johnny Berry - Gary Stillwell - Amanda Martin
EXTT6=Johnny Berry
EXTT7=Johnny Berry
EXTT8=Johnny Berry
EXTT9=Johnny Berry
PLAYORDER=
